HIERARCHY
ROOT Hips
{
	OFFSET 56.877701 -32.693596 43.373703
	CHANNELS 6 Xposition Yposition Zposition Zrotation Xrotation Yrotation
	JOINT Chest
	{
		OFFSET -0.779999 1.005800 5.403099
		CHANNELS 6 Xposition Yposition Zposition Zrotation Xrotation Yrotation
		JOINT Chest2
		{
			OFFSET 0.000000 0.000000 4.236801
			CHANNELS 6 Xposition Yposition Zposition Zrotation Xrotation Yrotation
			JOINT Neck
			{
				OFFSET 0.000000 0.000000 9.874401
				CHANNELS 6 Xposition Yposition Zposition Zrotation Xrotation Yrotation
				JOINT Head
				{
					OFFSET 0.000000 0.000002 2.173893
					CHANNELS 6 Xposition Yposition Zposition Zrotation Xrotation Yrotation
					End Site
					{
						OFFSET 0.000000 0.000000 6.508102
					}
				}
			}
			JOINT LeftCollar
			{
				OFFSET 2.681599 -0.377600 5.432499
				CHANNELS 6 Xposition Yposition Zposition Zrotation Xrotation Yrotation
				JOINT LeftShoulder
				{
					OFFSET 5.161499 0.000000 0.000000
					CHANNELS 6 Xposition Yposition Zposition Zrotation Xrotation Yrotation
					JOINT LeftElbow
					{
						OFFSET 0.000000 0.000000 -10.869099
						CHANNELS 6 Xposition Yposition Zposition Zrotation Xrotation Yrotation
						JOINT LeftWrist
						{
							OFFSET 0.000000 0.000000 -13.344799
							CHANNELS 6 Xposition Yposition Zposition Zrotation Xrotation Yrotation
							End Site
							{
								OFFSET 0.000000 0.000000 -2.173901
							}
						}
					}
				}
			}
			JOINT RightCollar
			{
				OFFSET -2.381901 -1.419600 6.136600
				CHANNELS 6 Xposition Yposition Zposition Zrotation Xrotation Yrotation
				JOINT RightShoulder
				{
					OFFSET -4.550499 0.000000 0.000000
					CHANNELS 6 Xposition Yposition Zposition Zrotation Xrotation Yrotation
					JOINT RightElbow
					{
						OFFSET 0.000000 0.000000 -11.106499
						CHANNELS 6 Xposition Yposition Zposition Zrotation Xrotation Yrotation
						JOINT RightWrist
						{
							OFFSET 0.000000 0.000000 -12.874298
							CHANNELS 6 Xposition Yposition Zposition Zrotation Xrotation Yrotation
							End Site
							{
								OFFSET 0.000000 0.000000 -2.173901
							}
						}
					}
				}
			}
		}
	}
	JOINT LeftHip
	{
		OFFSET 2.431900 0.469601 -2.489399
		CHANNELS 6 Xposition Yposition Zposition Zrotation Xrotation Yrotation
		JOINT LeftKnee
		{
			OFFSET 0.000000 -0.000004 -18.200201
			CHANNELS 6 Xposition Yposition Zposition Zrotation Xrotation Yrotation
			JOINT LeftAnkle
			{
				OFFSET 0.000000 0.000000 -16.279900
				CHANNELS 6 Xposition Yposition Zposition Zrotation Xrotation Yrotation
				End Site
				{
					OFFSET 0.000000 -8.394100 0.000000
				}
			}
		}
	}
	JOINT RightHip
	{
		OFFSET -1.987999 -0.073502 -2.713001
		CHANNELS 6 Xposition Yposition Zposition Zrotation Xrotation Yrotation
		JOINT RightKnee
		{
			OFFSET 0.000000 -0.000004 -19.547802
			CHANNELS 6 Xposition Yposition Zposition Zrotation Xrotation Yrotation
			JOINT RightAnkle
			{
				OFFSET 0.000000 0.000000 -14.881199
				CHANNELS 6 Xposition Yposition Zposition Zrotation Xrotation Yrotation
				End Site
				{
					OFFSET 0.000000 -7.922699 0.000000
				}
			}
		}
	}
}
MOTION
Frames: 10
Frame Time: 0.041667
56.941395 -45.751999 40.666904 3014.363561 32.675096 -13.152380 -0.779994 1.005801 5.403098 4.540901 -16.108810 -16.701518 0.000000 -0.000003 4.236799 -1.034541 -0.749699 -0.139748 0.000001 0.000008 9.874394 99.510952 -30.074494 43.603859 0.000004 0.000006 2.173886 3.579639 5.569747 4.500405 2.681593 -0.377600 5.432499 35.094082 -28.510244 -15.248963 5.161498 0.000007 0.000004 -185.508006 -213.025991 -246.806782 0.000004 -0.000001 -10.869098 -30.764446 -0.021316 1.037583 0.000005 -0.000002 -13.344794 -22.604919 3.153603 -4.611465 -2.381903 -1.419610 6.136600 17.857818 0.298883 -13.108053 -4.550495 0.000000 0.000000 -860.358058 -578.579533 -543.362859 0.000011 0.000013 -11.106499 334.071546 -66.219504 300.132200 0.000003 -0.000007 -12.874303 -808.244862 6.795837 -10.569113 2.431896 0.469596 -2.489403 29.519074 -41.785342 34.789992 -0.000000 -0.000004 -18.200199 -23.932411 47.936470 21.297583 -0.000005 -0.000001 -16.279898 26.734388 15.705110 -5.308253 -1.988002 -0.073496 -2.713005 -118.135211 -26.258213 -64.289395 0.000003 -0.000013 -19.547792 -1826.778790 108.156688 102.380417 -0.000001 0.000005 -14.881211 1775.359268 41.133950 12.440642
56.901901 -45.984192 40.650799 3019.829898 31.904159 -13.152334 -0.779992 1.005799 5.403100 5.114093 -15.415954 -16.607120 -0.000002 0.000004 4.236798 -1.022194 -0.759092 -0.141852 0.000010 -0.000004 9.874399 99.521778 -29.189913 43.033159 -0.000000 0.000008 2.173900 3.071121 5.599352 4.268600 2.681608 -0.377603 5.432501 34.836198 -28.954043 -14.978210 5.161506 -0.000000 -0.000006 -185.166579 -213.763624 -247.341149 -0.000002 0.000008 -10.869097 -30.531212 0.109346 0.991012 -0.000001 0.000012 -13.344797 -22.617106 3.412737 -4.604855 -2.381886 -1.419606 6.136595 17.878194 3.058815 -13.231642 -4.550493 0.000008 -0.000009 -861.541265 -576.746201 -541.098241 0.000010 -0.000004 -11.106493 333.493193 -65.690826 299.711815 0.000002 -0.000002 -12.874297 -807.497585 6.558730 -10.682416 2.431896 0.469600 -2.489393 29.198625 -41.034318 34.720225 0.000004 -0.000002 -18.200199 -27.702440 47.752165 21.815105 -0.000012 0.000005 -16.279902 25.339561 15.636009 -6.459636 -1.988001 -0.073497 -2.713001 -118.469262 -25.507543 -66.300421 0.000005 -0.000007 -19.547792 -1813.608000 117.304920 92.503151 0.000010 0.000000 -14.881200 1772.559328 42.105108 5.098575
56.872704 -46.260098 40.649509 3026.278690 31.669033 -13.535657 -0.779999 1.005799 5.403096 4.868830 -15.356922 -16.483927 0.000003 -0.000001 4.236807 -0.980389 -0.801569 -0.149025 -0.000005 0.000001 9.874409 99.438620 -28.642045 42.653176 0.000007 0.000001 2.173901 2.659334 5.781081 4.137253 2.681599 -0.377592 5.432514 34.940830 -28.903595 -14.772070 5.161505 -0.000001 -0.000004 -185.191864 -214.593028 -247.712055 0.000008 0.000005 -10.869100 -29.594926 0.103683 1.049024 0.000006 0.000011 -13.344803 -22.525728 2.963294 -4.370744 -2.381901 -1.419591 6.136600 17.861713 0.323164 -13.427680 -4.550510 0.000002 -0.000012 -861.257512 -578.925413 -543.115333 0.000000 -0.000023 -11.106494 332.865308 -64.583680 299.433308 -0.000005 -0.000009 -12.874296 -806.243398 6.141714 -10.850844 2.431903 0.469605 -2.489395 28.715768 -41.179747 35.308233 -0.000001 -0.000007 -18.200203 -32.243691 47.887819 22.674104 -0.000007 -0.000002 -16.279896 24.191031 15.758570 -7.257620 -1.987992 -0.073499 -2.713002 -119.240978 -24.690278 -68.703985 0.000001 -0.000013 -19.547802 -1808.234772 125.015753 89.861712 0.000010 0.000010 -14.881190 1770.599774 41.665540 -0.431760
56.884098 -46.534996 40.655701 3032.588910 31.350145 -13.945612 -0.779989 1.005800 5.403094 4.693434 -15.083834 -16.260595 0.000002 -0.000005 4.236805 -0.919798 -0.876310 -0.124770 0.000001 -0.000003 9.874390 99.024431 -28.207266 42.436918 -0.000002 0.000000 2.173886 2.560285 5.748650 4.112756 2.681602 -0.377596 5.432498 34.966740 -28.839097 -14.588219 5.161517 0.000009 -0.000006 -183.608216 -211.897876 -248.895590 -0.000002 -0.000001 -10.869099 -32.111373 0.137438 1.137639 0.000009 0.000010 -13.344804 -22.447167 3.107235 -4.144972 -2.381889 -1.419598 6.136591 17.584617 0.517598 -13.196843 -4.550499 0.000010 -0.000012 -860.872235 -578.686630 -543.401436 -0.000004 0.000001 -11.106501 332.343727 -63.942052 299.417953 0.000006 0.000004 -12.874296 -805.176195 6.259962 -10.772171 2.431909 0.469607 -2.489399 28.240110 -41.265261 35.975207 0.000000 -0.000004 -18.200201 -36.989193 48.056600 23.733026 -0.000000 0.000002 -16.279900 23.357345 16.111069 -8.042242 -1.987988 -0.073493 -2.712995 -119.694790 -24.208543 -70.749347 -0.000008 -0.000002 -19.547810 -1806.044084 129.442426 90.030226 -0.000013 0.000011 -14.881203 1769.596884 40.360209 -2.704631
56.942398 -46.787697 40.690800 3038.763620 30.915270 -14.178242 -0.780000 1.005792 5.403098 30.586663 -18.374865 -6.032460 0.000002 -0.000001 4.236808 -26.448711 -1.641992 -3.061016 0.000002 0.000003 9.874400 98.831137 -27.970875 42.293908 0.000011 -0.000003 2.173886 2.480743 5.902680 4.022262 2.681602 -0.377603 5.432504 35.431101 -28.728049 -14.286049 5.161510 0.000003 0.000002 -183.637026 -213.315796 -249.007797 0.000002 0.000003 -10.869098 -30.347647 -0.033332 1.038075 0.000005 0.000005 -13.344802 -22.472781 3.378639 -3.974624 -2.381890 -1.419603 6.136595 17.763261 0.636777 -13.511938 -4.550499 0.000010 -0.000005 -861.095882 -579.113763 -542.982335 0.000005 -0.000018 -11.106491 332.380036 -63.827339 299.645125 -0.000004 0.000004 -12.874300 -804.540932 6.390084 -10.737351 2.431908 0.469592 -2.489401 27.926946 -41.188004 36.594747 0.000006 0.000006 -18.200203 -42.123091 48.204883 25.030705 0.000008 -0.000002 -16.279898 22.686692 16.533108 -8.624518 -1.987991 -0.073507 -2.713002 -119.837923 -24.033482 -72.142234 -0.000003 0.000006 -19.547802 -1806.213255 130.340527 92.036963 0.000006 0.000010 -14.881200 1769.039868 38.671558 -0.982364
57.043999 -47.006996 40.760201 3044.795606 30.114980 -14.195595 -0.780001 1.005810 5.403090 24.790088 -17.304605 -8.482391 0.000003 0.000002 4.236805 -21.312693 -1.776765 -2.522022 0.000008 0.000010 9.874394 98.756319 -27.937337 42.005742 -0.000000 0.000005 2.173877 2.268041 6.020886 4.172208 2.681606 -0.377597 5.432489 35.589329 -28.750722 -14.370137 5.161496 0.000007 0.000010 -183.122481 -213.125330 -249.345727 0.000000 0.000000 -10.869094 -30.474081 -0.110481 1.067990 0.000001 0.000003 -13.344801 -22.330559 3.509797 -3.682168 -2.381893 -1.419597 6.136590 17.789245 0.741185 -14.075288 -4.550491 -0.000004 -0.000009 -861.233415 -579.463742 -542.543564 0.000003 -0.000003 -11.106497 332.920851 -64.251924 300.404861 0.000003 -0.000008 -12.874298 -804.491646 6.467008 -10.771979 2.431897 0.469612 -2.489401 27.596423 -40.675423 36.914048 0.000010 0.000002 -18.200197 -47.893966 48.198480 26.674867 -0.000006 0.000000 -16.279898 22.250671 16.945687 -8.968310 -1.987996 -0.073492 -2.713000 -119.717971 -24.213108 -72.527566 -0.000009 -0.000008 -19.547806 -1808.496177 128.378911 95.820560 -0.000003 0.000008 -14.881196 1769.100848 36.790182 3.984394
57.183800 -47.186295 40.859100 3050.755684 29.325591 -13.814614 -0.780004 1.005805 5.403094 19.004272 -16.222930 -11.106793 0.000005 0.000000 4.236794 -15.960542 -1.664925 -1.828200 0.000002 0.000001 9.874398 98.609470 -28.090722 42.237261 0.000005 0.000004 2.173902 2.038522 6.091206 4.281293 2.681595 -0.377597 5.432503 35.514129 -28.958356 -14.637592 5.161501 -0.000001 0.000004 -182.774578 -212.971036 -249.364469 0.000003 0.000002 -10.869103 -30.677675 -0.111538 1.066306 0.000004 0.000005 -13.344802 -22.215014 3.675887 -3.612092 -2.381900 -1.419594 6.136595 17.572009 0.707055 -14.624977 -4.550500 0.000000 -0.000008 -861.242485 -579.681980 -542.136976 0.000002 -0.000006 -11.106497 333.904617 -65.154342 301.446574 -0.000005 0.000000 -12.874294 -805.031886 6.526473 -10.785200 2.431899 0.469604 -2.489399 27.325343 -40.134636 36.913867 0.000008 -0.000004 -18.200199 -53.462435 48.225268 28.188937 -0.000010 0.000002 -16.279898 21.654843 17.375009 -9.522241 -1.987999 -0.073496 -2.713001 -119.426049 -24.339896 -72.035799 -0.000003 -0.000010 -19.547800 -1815.069114 122.867112 102.832412 -0.000007 0.000009 -14.881199 1771.419397 35.400700 11.470386
57.351398 -47.324596 40.981503 3056.722100 28.742799 -13.257912 -0.780001 1.005795 5.403097 13.251862 -15.200945 -13.677092 0.000004 0.000003 4.236797 -10.764189 -1.722028 -1.288285 0.000001 -0.000010 9.874397 98.565176 -28.220870 41.955031 0.000004 0.000004 2.173900 2.021655 6.217910 4.132710 2.681599 -0.377604 5.432495 35.131956 -29.439235 -14.250958 5.161499 -0.000005 0.000002 -181.877856 -213.860053 -250.353645 0.000001 0.000012 -10.869097 -30.694761 -0.152088 1.154612 -0.000001 0.000005 -13.344802 -22.066065 3.693920 -3.269857 -2.381902 -1.419610 6.136593 17.420218 1.101007 -14.879786 -4.550501 0.000004 -0.000001 -860.977146 -579.737386 -541.943709 0.000001 -0.000008 -11.106497 335.173666 -66.330310 302.689395 0.000001 0.000000 -12.874297 -806.048874 6.426239 -10.790186 2.431899 0.469597 -2.489403 25.468964 -40.553773 35.784505 0.000007 -0.000006 -18.200195 -57.660689 48.042478 29.794101 -0.000002 0.000004 -16.279902 21.351620 17.760170 -9.993789 -1.987999 -0.073500 -2.713004 -119.263122 -24.334388 -70.987269 -0.000011 -0.000009 -19.547802 -1831.695434 114.718573 118.164486 0.000009 0.000006 -14.881197 1777.312047 34.732349 21.462655
57.557804 -47.424397 41.110298 3062.838889 27.990303 -12.187298 -0.779998 1.005806 5.403097 7.179256 -13.877677 -16.669650 0.000004 0.000002 4.236804 -5.485964 -1.496995 -0.725505 -0.000001 0.000006 9.874393 98.843410 -28.492433 41.927919 0.000001 0.000002 2.173887 1.750400 6.439449 4.483392 2.681602 -0.377592 5.432498 35.867051 -28.914537 -14.568073 5.161501 -0.000004 0.000006 -182.607512 -213.542367 -249.773898 0.000002 -0.000002 -10.869105 -30.838533 -0.141775 1.208578 0.000001 0.000006 -13.344801 -21.749790 3.352949 -3.233578 -2.381890 -1.419591 6.136593 18.236759 1.400352 -15.096012 -4.550493 0.000010 -0.000004 -862.088500 -579.486363 -541.264078 0.000000 0.000009 -11.106501 336.359933 -67.284999 303.625705 0.000007 0.000004 -12.874298 -807.320601 6.137314 -10.737996 2.431901 0.469608 -2.489399 27.540836 -39.198691 36.605545 -0.000005 0.000000 -18.200193 -66.745544 47.795550 32.777443 -0.000006 0.000005 -16.279900 21.369884 17.939914 -9.941780 -1.988001 -0.073500 -2.712996 -118.772550 -24.389023 -68.635437 -0.000008 -0.000008 -19.547802 -1868.640528 109.502986 151.739920 -0.000007 0.000001 -14.881199 1786.825244 35.416204 30.641065
57.799297 -47.511299 41.206406 3068.954149 27.436846 -10.964596 -0.779998 1.005799 5.403096 1.136480 -12.357780 -19.546449 -0.000001 -0.000005 4.236801 0.033866 -1.241510 -0.176524 0.000011 0.000000 9.874398 98.866858 -28.716806 41.702089 0.000006 0.000002 2.173894 1.631823 6.561965 4.733911 2.681606 -0.377606 5.432495 36.023821 -28.872668 -14.694662 5.161504 -0.000004 0.000010 -182.908190 -213.817487 -249.736523 0.000005 0.000005 -10.869098 -30.585628 -0.178694 1.285395 0.000002 0.000008 -13.344796 -21.767068 2.926737 -3.158628 -2.381887 -1.419604 6.136588 18.590467 1.766136 -15.358350 -4.550501 0.000008 0.000000 -862.728243 -579.390303 -540.817111 0.000001 -0.000001 -11.106500 337.702038 -68.247872 304.882077 -0.000007 -0.000006 -12.874307 -808.744122 5.802445 -10.667436 2.431896 0.469604 -2.489397 27.906275 -39.123617 36.230950 0.000004 -0.000004 -18.200201 -73.900721 47.247786 36.018637 -0.000003 0.000008 -16.279900 22.048880 18.241330 -9.556854 -1.988002 -0.073495 -2.712997 -118.387560 -23.909671 -65.985617 -0.000007 0.000015 -19.547802 -1909.698817 113.775420 188.378871 0.000001 0.000007 -14.881198 1799.141659 37.833818 37.290811
